<?xml version="1.0" standalone="no"?>
<!DOCTYPE svg PUBLIC "-//W3C//DTD SVG 20010904//EN"
 "http://www.w3.org/TR/2001/REC-SVG-20010904/DTD/svg10.dtd">
<svg version="1.0" xmlns="http://www.w3.org/2000/svg"
 width="128.000000pt" height="128.000000pt" viewBox="0 0 128.000000 128.000000"
 preserveAspectRatio="xMidYMid meet">
<metadata>
Created by potrace 1.11, written by Peter Selinger 2001-2013
</metadata>
<g transform="translate(0.000000,128.000000) scale(0.100000,-0.100000)"
fill="#000000" stroke="none">
<path d="M614 1233 c-38 -7 -67 -48 -67 -94 0 -35 6 -48 32 -71 30 -27 32 -32
29 -91 l-3 -62 -205 -1 -204 -2 -23 -26 c-18 -21 -23 -39 -23 -82 0 -51 -2
-54 -24 -54 -14 0 -38 -11 -53 -24 l-28 -24 -1 -214 c-1 -117 3 -225 8 -240
11 -30 33 -44 78 -47 17 -1 20 -8 20 -56 0 -45 4 -58 25 -80 23 -22 51 -31 80
-25 5 1 21 1 35 1 14 -1 34 -1 45 -1 51 -1 141 -1 150 -1 32 0 73 1 90 1 51
-1 141 -1 150 -1 32 0 73 1 90 1 72 -1 142 -1 155 -1 8 0 37 1 63 1 64 0 97
31 98 92 2 73 2 73 29 70 38 -4 80 40 81 86 1 20 1 41 0 45 -1 4 -1 18 -1 30
-1 100 -1 164 0 177 1 60 -1 129 -6 153 -6 28 -47 57 -82 57 -15 0 -19 9 -21
48 -2 26 -3 53 -4 60 0 7 -12 23 -26 35 -26 21 -34 22 -229 21 l-202 -1 0 63
c0 59 2 66 31 92 26 23 32 36 32 71 0 65 -53 106 -119 94z"/>
</g>
</svg>
